<?xml version="1.0" standalone="no"?>
<!DOCTYPE svg PUBLIC "-//W3C//DTD SVG 20010904//EN"
 "http://www.w3.org/TR/2001/REC-SVG-20010904/DTD/svg10.dtd">
<svg version="1.0" xmlns="http://www.w3.org/2000/svg"
 width="512.000000pt" height="512.000000pt" viewBox="0 0 512.000000 512.000000"
 preserveAspectRatio="xMidYMid meet">

<g transform="translate(0.000000,512.000000) scale(0.100000,-0.100000)"
fill="#000000" stroke="none">
<path d="M2558 4057 l-3 -1058 -807 -397 c-444 -218 -808 -401 -808 -405 0 -5
154 -84 342 -177 189 -92 553 -271 810 -398 l468 -230 587 289 c324 159 690
339 814 401 l227 113 -795 1425 c-437 784 -803 1441 -813 1460 -19 35 -19 22
-22 -1023z"/>
<path d="M3274 1561 c-369 -181 -680 -332 -692 -335 l-22 -7 0 -607 c0 -358 4
-602 9 -596 5 5 79 104 164 221 179 244 1156 1559 1199 1616 17 20 26 37 21
37 -4 0 -310 -148 -679 -329z"/>
</g>
</svg>
